<svg xmlns="http://www.w3.org/2000/svg" xmlns:xlink="http://www.w3.org/1999/xlink" width="1587" zoomAndPan="magnify" viewBox="0 0 1190.25 1683.749945" height="2245" preserveAspectRatio="xMidYMid meet" version="1.0"><defs><g/><clipPath id="id1"><path d="M 276 233.175781 L 920 233.175781 L 920 1354 L 276 1354 Z M 276 233.175781 " clip-rule="nonzero"/></clipPath></defs><g clip-path="url(#id1)"><path fill="rgb(96.469116%, 89.019775%, 89.7995%)" d="M 735.875 1196.085938 C 735.960938 1195.832031 880.203125 742.585938 882.632812 732.039062 C 895.292969 677.152344 907.660156 583.035156 853.34375 597.511719 C 801.34375 611.371094 747.484375 667.5625 714.085938 709.53125 C 709.359375 715.476562 705.335938 885.738281 735.875 1196.085938 Z M 416.820312 666.746094 C 504.820312 725.753906 534.71875 915.199219 551.421875 975.347656 C 602.808594 795.597656 685.414062 713.472656 685.964844 698.679688 C 686.628906 681.050781 691.246094 524.941406 696.253906 469.636719 C 595.257812 470.292969 586.214844 471.226562 588.335938 455.351562 C 590.121094 442.011719 605.332031 445.890625 634.949219 445.328125 C 676.789062 444.539062 696.71875 443.800781 696.4375 443.835938 C 700.429688 399.753906 703.152344 299.820312 704.289062 255.746094 C 704.488281 247.722656 695.972656 239.917969 713.222656 233.238281 C 737.363281 235.421875 732.617188 245.773438 724.113281 442.425781 C 850.171875 439.585938 842.238281 437.621094 845.835938 447.761719 C 851.535156 463.789062 835.171875 466.597656 818.179688 467.015625 C 714.410156 469.558594 726.179688 467.941406 721.847656 469.292969 C 718.894531 535.296875 715.945312 601.660156 712.921875 669.363281 C 747.890625 632 808.546875 572.28125 862.695312 569.398438 C 903.507812 567.214844 919.5 606.582031 919.703125 647.101562 C 920.101562 731.511719 894.753906 782.054688 843.828125 940.726562 C 807.121094 1055.078125 775.246094 1161.507812 755.691406 1217.40625 C 744.875 1248.34375 720.9375 1247.671875 715.335938 1229.21875 C 690.253906 1146.558594 684.554688 750.34375 684.539062 750.082031 C 574.242188 923.945312 580.160156 993.1875 566.648438 1022.605469 C 560.5 1035.996094 543.753906 1034.773438 538.683594 1023.246094 C 515.347656 970.144531 498.332031 787.753906 419.523438 703.574219 C 347.363281 626.488281 308.082031 727.9375 304.410156 833.234375 C 294.773438 1109.796875 498.082031 1297.457031 564.605469 1330.25 C 584.878906 1340.242188 570.949219 1364.652344 546.09375 1346.839844 C 525.292969 1331.929688 503.453125 1318.121094 484.382812 1301.214844 C 182.992188 1034.085938 255.066406 558.285156 416.820312 666.746094 " fill-opacity="1" fill-rule="nonzero"/></g><g fill="rgb(23.139954%, 3.919983%, 3.919983%)" fill-opacity="1"><g transform="translate(416.013921, 1488.453885)"><g><path d="M 15.285156 -16.066406 C 24.96875 -16.234375 31.351562 -20.824219 31.351562 -28.273438 C 31.351562 -34.542969 26.425781 -39.246094 18.195312 -39.246094 C 16.179688 -39.246094 12.988281 -39.019531 9.347656 -39.019531 L 2.070312 -39.019531 L 2.070312 -37.902344 C 6.4375 -36.78125 6.492188 -34.652344 6.492188 -29.671875 L 6.492188 -9.347656 C 6.492188 -4.367188 6.492188 -2.238281 2.070312 -1.121094 L 2.070312 0 L 16.066406 0 L 16.066406 -1.121094 C 11.644531 -2.238281 11.53125 -4.253906 11.53125 -9.347656 L 11.53125 -37.230469 C 13.042969 -37.507812 14.667969 -37.621094 16.179688 -37.621094 C 22.671875 -37.621094 25.921875 -32.75 25.921875 -27.542969 C 25.921875 -21.722656 21.890625 -17.691406 15.171875 -17.355469 Z M 15.285156 -16.066406 "/></g></g></g><g fill="rgb(23.139954%, 3.919983%, 3.919983%)" fill-opacity="1"><g transform="translate(448.70646, 1488.453885)"><g><path d="M 18.136719 -27.488281 C 15.285156 -27.488281 11.8125 -25.023438 9.238281 -22.617188 L 9.851562 -26.871094 L 8.957031 -27.65625 C 6.828125 -26.816406 3.808594 -26.367188 1.0625 -26.199219 L 1.0625 -25.082031 C 3.359375 -24.855469 5.039062 -23.625 5.039062 -20.433594 L 5.039062 -7.445312 C 5.039062 -2.800781 4.535156 -2.183594 1.0625 -1.121094 L 1.0625 0 L 13.324219 0 L 13.324219 -1.121094 C 9.628906 -2.183594 9.515625 -3.304688 9.515625 -7.445312 L 9.515625 -21.160156 C 11.699219 -23.066406 13.941406 -23.625 14.949219 -23.625 C 17.296875 -23.625 18.363281 -21.945312 19.3125 -21.945312 C 20.546875 -21.945312 21.441406 -23.234375 21.441406 -24.632812 C 21.441406 -26.59375 19.761719 -27.488281 18.136719 -27.488281 Z M 18.136719 -27.488281 "/></g></g></g><g fill="rgb(23.139954%, 3.919983%, 3.919983%)" fill-opacity="1"><g transform="translate(471.714396, 1488.453885)"><g><path d="M 15.226562 0.726562 C 23.007812 0.726562 29.054688 -5.765625 29.054688 -14.164062 C 29.054688 -21.496094 23.679688 -27.601562 15.730469 -27.601562 C 8.285156 -27.601562 1.847656 -21.328125 1.847656 -13.15625 C 1.847656 -5.261719 7.277344 0.726562 15.226562 0.726562 Z M 16.460938 -0.953125 C 10.75 -0.953125 6.886719 -7.054688 6.886719 -16.234375 C 6.886719 -22.5625 10.246094 -25.976562 14.890625 -25.976562 C 20.210938 -25.976562 24.183594 -19.648438 24.183594 -10.355469 C 24.183594 -4.253906 20.769531 -0.953125 16.460938 -0.953125 Z M 16.460938 -0.953125 "/></g></g></g><g fill="rgb(23.139954%, 3.919983%, 3.919983%)" fill-opacity="1"><g transform="translate(502.559585, 1488.453885)"><g><path d="M 17.074219 -25.695312 C 21.328125 -25.695312 21.722656 -22.449219 18.808594 -15.058594 L 14.722656 -4.648438 L 8.957031 -20.265625 C 7.667969 -23.738281 8.902344 -25.304688 11.253906 -25.695312 L 11.253906 -26.816406 L 0.222656 -26.816406 L 0.222656 -25.695312 C 2.238281 -25.136719 2.800781 -23.625 4.253906 -19.929688 L 12.261719 0.671875 L 14.164062 0.671875 L 20.824219 -15.058594 C 24.632812 -23.960938 25.304688 -25.640625 27.152344 -25.695312 L 27.152344 -26.816406 L 17.074219 -26.816406 Z M 17.074219 -25.695312 "/></g></g></g><g fill="rgb(23.139954%, 3.919983%, 3.919983%)" fill-opacity="1"><g transform="translate(529.933998, 1488.453885)"><g><path d="M 16.628906 -2.183594 C 10.078125 -2.183594 6.605469 -7.222656 6.605469 -14.949219 L 6.605469 -16.125 L 25.417969 -16.402344 C 24.855469 -23.234375 20.769531 -27.601562 14.445312 -27.601562 C 7.726562 -27.601562 2.015625 -21.386719 2.015625 -12.707031 C 2.015625 -4.648438 7.277344 0.785156 14.21875 0.785156 C 17.132812 0.785156 20.601562 -0.113281 24.914062 -3.582031 L 24.351562 -4.421875 C 22 -2.855469 18.921875 -2.183594 16.628906 -2.183594 Z M 13.660156 -26.03125 C 18.027344 -26.03125 19.984375 -22.335938 20.378906 -17.914062 L 6.773438 -17.632812 C 7.332031 -22.503906 9.515625 -26.03125 13.660156 -26.03125 Z M 13.660156 -26.03125 "/></g></g></g><g fill="rgb(23.139954%, 3.919983%, 3.919983%)" fill-opacity="1"><g transform="translate(557.252426, 1488.453885)"><g><path d="M 18.136719 -27.488281 C 15.285156 -27.488281 11.8125 -25.023438 9.238281 -22.617188 L 9.851562 -26.871094 L 8.957031 -27.65625 C 6.828125 -26.816406 3.808594 -26.367188 1.0625 -26.199219 L 1.0625 -25.082031 C 3.359375 -24.855469 5.039062 -23.625 5.039062 -20.433594 L 5.039062 -7.445312 C 5.039062 -2.800781 4.535156 -2.183594 1.0625 -1.121094 L 1.0625 0 L 13.324219 0 L 13.324219 -1.121094 C 9.628906 -2.183594 9.515625 -3.304688 9.515625 -7.445312 L 9.515625 -21.160156 C 11.699219 -23.066406 13.941406 -23.625 14.949219 -23.625 C 17.296875 -23.625 18.363281 -21.945312 19.3125 -21.945312 C 20.546875 -21.945312 21.441406 -23.234375 21.441406 -24.632812 C 21.441406 -26.59375 19.761719 -27.488281 18.136719 -27.488281 Z M 18.136719 -27.488281 "/></g></g></g><g fill="rgb(23.139954%, 3.919983%, 3.919983%)" fill-opacity="1"><g transform="translate(580.260362, 1488.453885)"><g><path d="M 17.578125 -27.433594 C 14.445312 -27.433594 11.699219 -25.976562 8.285156 -23.792969 L 8.507812 -34.988281 L 8.507812 -41.988281 L 7.613281 -42.769531 C 5.542969 -41.820312 3.023438 -41.148438 0.0546875 -40.699219 L 0.0546875 -39.582031 C 2.632812 -39.1875 4.03125 -37.84375 4.03125 -34.933594 L 4.03125 -1.34375 C 5.933594 -0.558594 10.523438 0.335938 13.378906 0.335938 C 21.050781 0.335938 28.382812 -5.597656 28.382812 -14.386719 C 28.382812 -22.28125 23.792969 -27.433594 17.578125 -27.433594 Z M 15.394531 -1.679688 C 12.820312 -1.679688 10.1875 -2.40625 8.507812 -3.304688 L 8.507812 -22.335938 C 11.195312 -23.847656 13.492188 -24.6875 15.621094 -24.6875 C 20.601562 -24.6875 23.90625 -20.152344 23.90625 -12.09375 C 23.90625 -5.65625 20.824219 -1.679688 15.394531 -1.679688 Z M 15.394531 -1.679688 "/></g></g></g><g fill="rgb(23.139954%, 3.919983%, 3.919983%)" fill-opacity="1"><g transform="translate(610.433775, 1488.453885)"><g><path d="M 9.742188 0.785156 C 16.402344 0.785156 20.882812 -3.191406 20.882812 -8.398438 C 20.882812 -12.09375 18.867188 -14.050781 14.667969 -15.339844 C 9.574219 -16.90625 6.492188 -18.027344 6.492188 -21.609375 C 6.492188 -23.960938 8.566406 -25.976562 11.589844 -25.976562 C 15.003906 -25.976562 17.355469 -23.34375 18.699219 -19.539062 L 19.648438 -19.707031 L 18.976562 -26.480469 C 16.460938 -27.207031 14.5 -27.601562 12.597656 -27.601562 C 6.605469 -27.601562 2.6875 -24.015625 2.6875 -19.480469 C 2.6875 -15.003906 5.261719 -13.042969 10.1875 -11.53125 C 14.386719 -10.246094 16.851562 -9.742188 16.851562 -5.988281 C 16.851562 -2.910156 14.332031 -0.785156 10.917969 -0.785156 C 6.605469 -0.785156 4.648438 -3.527344 2.910156 -8.230469 L 1.847656 -8.0625 L 2.40625 -0.726562 C 4.984375 0.28125 7.332031 0.785156 9.742188 0.785156 Z M 9.742188 0.785156 "/></g></g></g><g fill="rgb(23.139954%, 3.919983%, 3.919983%)" fill-opacity="1"><g transform="translate(633.441711, 1488.453885)"><g/></g></g><g fill="rgb(23.139954%, 3.919983%, 3.919983%)" fill-opacity="1"><g transform="translate(649.004272, 1488.453885)"><g><path d="M 11.644531 0.785156 C 19.59375 0.785156 26.480469 -5.207031 26.480469 -12.203125 C 26.480469 -18.082031 22.839844 -21.722656 16.851562 -21.722656 C 16.460938 -21.722656 16.011719 -21.722656 15.5625 -21.664062 C 21.105469 -23.90625 24.015625 -27.207031 24.015625 -31.742188 C 24.015625 -36.332031 20.265625 -39.523438 14.835938 -39.523438 C 10.019531 -39.523438 6.046875 -36.390625 3.472656 -32.804688 L 4.648438 -31.910156 C 6.605469 -34.597656 9.910156 -36.222656 12.875 -36.222656 C 16.460938 -36.222656 18.867188 -33.980469 18.867188 -30.621094 C 18.867188 -26.480469 15.285156 -22.617188 8.003906 -19.425781 L 8.566406 -18.195312 C 10.523438 -18.976562 12.261719 -19.3125 13.773438 -19.3125 C 18.136719 -19.3125 21.21875 -15.675781 21.21875 -10.972656 C 21.21875 -5.765625 18.027344 -0.839844 13.042969 -0.839844 C 7.613281 -0.839844 6.269531 -6.15625 4.984375 -6.15625 C 3.863281 -6.15625 2.6875 -4.984375 2.6875 -3.414062 C 2.6875 -1.289062 4.925781 0.785156 11.644531 0.785156 Z M 11.644531 0.785156 "/></g></g></g><g fill="rgb(23.139954%, 3.919983%, 3.919983%)" fill-opacity="1"><g transform="translate(678.282019, 1488.453885)"><g><path d="M 7.109375 -17.242188 C 9.125 -17.242188 10.804688 -18.867188 10.804688 -20.882812 C 10.804688 -22.730469 9.40625 -24.183594 7.558594 -24.183594 C 5.542969 -24.183594 3.863281 -22.5625 3.863281 -20.488281 C 3.863281 -18.640625 5.261719 -17.242188 7.109375 -17.242188 Z M 7.109375 0.726562 C 9.125 0.726562 10.804688 -0.894531 10.804688 -2.910156 C 10.804688 -4.757812 9.40625 -6.214844 7.558594 -6.214844 C 5.542969 -6.214844 3.863281 -4.589844 3.863281 -2.519531 C 3.863281 -0.671875 5.261719 0.726562 7.109375 0.726562 Z M 7.109375 0.726562 "/></g></g></g><g fill="rgb(23.139954%, 3.919983%, 3.919983%)" fill-opacity="1"><g transform="translate(693.84458, 1488.453885)"><g><path d="M 15.789062 -23.847656 C 12.988281 -23.847656 10.300781 -23.007812 7.445312 -20.992188 L 9.628906 -33.980469 C 12.09375 -33.925781 14.109375 -33.8125 15.5625 -33.8125 C 18.417969 -33.8125 21.609375 -33.980469 25.753906 -34.261719 L 26.367188 -39.019531 C 23.90625 -38.628906 20.9375 -38.460938 17.296875 -38.460938 C 15.171875 -38.460938 12.09375 -38.574219 8.171875 -38.742188 L 5.710938 -19.144531 L 6.996094 -18.363281 C 9.460938 -20.152344 11.421875 -20.769531 13.4375 -20.769531 C 18.417969 -20.769531 21.890625 -16.90625 21.890625 -11.699219 C 21.890625 -5.710938 18.699219 -0.894531 13.546875 -0.894531 C 8.675781 -0.894531 6.773438 -6.15625 5.488281 -6.15625 C 4.367188 -6.15625 3.191406 -4.984375 3.191406 -3.414062 C 3.191406 -1.289062 6.269531 0.785156 12.429688 0.785156 C 20.488281 0.785156 27.039062 -5.207031 27.039062 -12.597656 C 27.039062 -19.089844 22.671875 -23.847656 15.789062 -23.847656 Z M 15.789062 -23.847656 "/></g></g></g><g fill="rgb(23.139954%, 3.919983%, 3.919983%)" fill-opacity="1"><g transform="translate(723.682123, 1488.453885)"><g><path d="M 17.132812 -12.988281 L 17.132812 -15.226562 L 2.632812 -15.226562 L 2.632812 -12.988281 Z M 17.132812 -12.988281 "/></g></g></g><g fill="rgb(23.139954%, 3.919983%, 3.919983%)" fill-opacity="1"><g transform="translate(743.275244, 1488.453885)"><g><path d="M 17.464844 -24.242188 C 14.554688 -24.242188 11.867188 -23.175781 8.621094 -20.882812 C 9.179688 -30.621094 12.933594 -36.613281 17.96875 -36.613281 C 20.9375 -36.613281 23.511719 -33.980469 24.6875 -33.980469 C 25.808594 -33.980469 26.703125 -34.933594 26.703125 -36.277344 C 26.703125 -38.179688 25.191406 -39.46875 22.226562 -39.414062 C 12.261719 -39.246094 3.359375 -29.894531 3.359375 -15.621094 C 3.359375 -5.320312 8.453125 0.785156 15.5625 0.785156 C 22.730469 0.785156 27.992188 -4.589844 27.992188 -12.261719 C 27.992188 -19.371094 23.289062 -24.242188 17.464844 -24.242188 Z M 16.292969 -0.726562 C 10.132812 -0.726562 8.398438 -6.605469 8.398438 -15.5625 C 8.398438 -16.628906 8.398438 -17.746094 8.566406 -19.035156 L 8.566406 -19.089844 C 11.027344 -20.824219 13.324219 -21.722656 15.507812 -21.722656 C 20.769531 -21.722656 23.289062 -16.796875 23.289062 -10.582031 C 23.289062 -5.152344 21.050781 -0.726562 16.292969 -0.726562 Z M 16.292969 -0.726562 "/></g></g></g><g fill="rgb(23.139954%, 3.919983%, 3.919983%)" fill-opacity="1"><g transform="translate(341.71528, 424.632747)"><g><path d="M 106.175781 -134.566406 C 97.175781 -127.769531 85.980469 -127.570312 74.183594 -129.570312 C 75.183594 -134.167969 76.382812 -138.765625 77.582031 -143.167969 C 78.582031 -147.164062 76.78125 -151.164062 73.382812 -153.164062 L 69.183594 -155.5625 C 67.984375 -156.164062 66.585938 -156.164062 65.382812 -155.761719 C 64.183594 -155.164062 63.386719 -154.164062 62.984375 -152.964844 L 58.386719 -133.167969 L 54.1875 -134.367188 C 33.59375 -139.765625 12.195312 -145.566406 0.199219 -127.96875 C -0.199219 -127.371094 0 -126.371094 0.601562 -125.96875 C 1.398438 -125.371094 2.199219 -125.570312 2.597656 -126.371094 C 13.597656 -142.167969 32.792969 -136.96875 53.386719 -131.367188 L 57.785156 -130.167969 C 52.585938 -106.574219 47.589844 -78.980469 45.589844 -54.585938 C 42.988281 -22.996094 46.789062 -5.199219 56.585938 -1.800781 C 58.585938 -1.199219 60.386719 -0.800781 62.183594 -0.800781 C 66.382812 -0.800781 69.183594 -2.597656 69.984375 -3.199219 C 81.78125 -9.398438 93.578125 -35.792969 95.175781 -39.390625 C 95.378906 -40.191406 95.175781 -40.992188 94.378906 -41.390625 C 93.578125 -41.789062 92.777344 -41.390625 92.378906 -40.589844 C 92.378906 -40.589844 87.980469 -30.191406 81.980469 -20.796875 C 76.980469 -12.996094 72.582031 -8 68.785156 -5.796875 C 68.582031 -5.796875 68.382812 -5.597656 68.382812 -5.597656 C 66.382812 -4.597656 64.785156 -4.398438 63.386719 -5 C 61.386719 -5.796875 55.585938 -11.199219 59.984375 -51.585938 C 62.386719 -73.582031 67.183594 -100.175781 73.382812 -126.769531 C 77.582031 -125.96875 81.78125 -125.570312 85.78125 -125.570312 C 93.777344 -125.570312 101.375 -127.171875 107.972656 -132.167969 C 108.574219 -132.570312 108.773438 -133.570312 108.175781 -134.167969 C 107.773438 -134.769531 106.773438 -134.96875 106.175781 -134.566406 Z M 106.175781 -134.566406 "/></g></g></g><g fill="rgb(23.139954%, 3.919983%, 3.919983%)" fill-opacity="1"><g transform="translate(433.893385, 424.632747)"><g><path d="M 63.785156 -41.390625 C 62.984375 -41.789062 62.183594 -41.390625 61.785156 -40.589844 C 53.789062 -23.996094 44.191406 -11.597656 36.390625 -5 C 34.992188 -4.199219 33.390625 -3.398438 32.191406 -3.800781 C 31.992188 -3.800781 31.59375 -4 31.191406 -4.800781 C 28.792969 -9.996094 32.390625 -26.992188 37.191406 -39.390625 C 37.792969 -40.992188 37.390625 -42.789062 36.191406 -43.789062 C 34.992188 -44.988281 33.191406 -45.390625 31.792969 -44.789062 C 26.59375 -42.589844 19.195312 -39.992188 13.796875 -40.191406 C 11.398438 -40.191406 9.996094 -40.789062 9.398438 -41.789062 C 7.796875 -44.390625 10.597656 -51.1875 12.796875 -55.988281 C 14.398438 -59.386719 13.597656 -63.386719 10.597656 -65.785156 L 8.796875 -67.382812 C 7.597656 -68.582031 5.796875 -68.984375 4.199219 -68.582031 C 2.597656 -68.183594 1.199219 -67.183594 0.601562 -65.585938 C -5.199219 -53.1875 -6.796875 -45.988281 -0.800781 -39.789062 C 4.199219 -34.59375 15.996094 -35.792969 21.195312 -36.589844 C 15.996094 -23.59375 13.398438 -7.796875 18.195312 -0.398438 C 19.996094 2 22.394531 3.398438 25.394531 3.398438 L 25.59375 3.398438 C 29.394531 3.398438 33.992188 1 38.789062 -3.199219 C 39.390625 -3.597656 39.589844 -4 39.789062 -4.199219 C 48.1875 -11.597656 57.1875 -24.195312 64.386719 -39.390625 C 64.785156 -40.191406 64.585938 -40.992188 63.785156 -41.390625 Z M 63.785156 -41.390625 "/></g></g></g><g fill="rgb(23.139954%, 3.919983%, 3.919983%)" fill-opacity="1"><g transform="translate(495.478729, 424.632747)"><g><path d="M 82.378906 -41.390625 C 81.78125 -41.789062 80.78125 -41.390625 80.382812 -40.789062 C 72.382812 -26.394531 66.183594 -17.394531 61.1875 -11.796875 C 61.1875 -11.597656 60.984375 -11.597656 60.984375 -11.597656 C 59.984375 -10.796875 56.785156 -8.398438 54.785156 -9.199219 C 53.789062 -9.597656 52.988281 -10.398438 52.386719 -11.597656 C 48.988281 -19.59375 54.386719 -43.789062 66.585938 -74.980469 C 67.785156 -77.582031 66.785156 -80.382812 64.183594 -81.78125 L 62.984375 -82.582031 C 61.386719 -83.582031 59.585938 -83.78125 57.785156 -83.179688 C 56.1875 -82.78125 54.785156 -81.582031 53.988281 -79.980469 C 51.1875 -74.183594 48.1875 -66.382812 45.589844 -58.1875 C 38.992188 -43.988281 30.992188 -29.992188 23.59375 -21.394531 L 23.394531 -21.195312 C 23.394531 -20.996094 23.195312 -20.996094 22.996094 -20.796875 C 21.996094 -19.796875 18.796875 -16.796875 14.996094 -18.796875 C 11.597656 -20.394531 10.796875 -34.390625 23.394531 -64.585938 C 24.792969 -67.585938 23.792969 -71.382812 21.195312 -73.382812 L 19.796875 -74.382812 C 18.59375 -75.382812 16.996094 -75.78125 15.597656 -75.382812 C 13.996094 -74.980469 12.597656 -74.183594 11.996094 -72.78125 C 1.199219 -53.789062 -3.800781 -29.394531 0.199219 -16.996094 C 1.398438 -13.398438 3.199219 -10.996094 5.796875 -9.996094 C 7 -9.398438 8.398438 -8.996094 9.597656 -8.996094 C 10.996094 -8.996094 12.597656 -9.398438 13.996094 -9.996094 C 17.597656 -11.398438 21.195312 -14.398438 24.792969 -18.394531 C 25.195312 -18.796875 25.59375 -18.996094 25.792969 -19.394531 C 31.394531 -25.792969 36.792969 -34.59375 41.789062 -43.789062 C 39.191406 -32.59375 37.792969 -21.792969 38.390625 -14.195312 C 38.789062 -8.199219 41.191406 -1.398438 46.789062 -0.199219 C 47.1875 -0.199219 47.789062 0 48.386719 0 C 52.585938 0 57.386719 -3.199219 62.984375 -9.398438 L 63.386719 -9.796875 C 69.183594 -16.394531 75.582031 -26.195312 82.980469 -39.390625 C 83.378906 -39.992188 83.179688 -40.992188 82.378906 -41.390625 Z M 82.378906 -41.390625 "/></g></g></g><g fill="rgb(23.139954%, 3.919983%, 3.919983%)" fill-opacity="1"><g transform="translate(575.459729, 424.632747)"><g><path d="M 50.988281 -41.191406 C 50.386719 -41.589844 49.386719 -41.589844 48.988281 -40.992188 C 48.789062 -40.789062 42.191406 -32.390625 25.195312 -23.996094 C 22.996094 -31.191406 19.195312 -36.792969 15.796875 -41.988281 C 11.996094 -47.589844 8.796875 -52.386719 8.398438 -57.984375 C 8 -66.785156 13.597656 -75.582031 19.195312 -78.582031 C 20.195312 -79.179688 22.195312 -79.980469 23.59375 -78.980469 C 24.394531 -78.382812 25.195312 -77.78125 25.59375 -76.980469 C 27.992188 -73.582031 28.59375 -68.183594 26.992188 -64.183594 C 26.59375 -63.386719 26.992188 -62.585938 27.59375 -62.183594 C 28.394531 -61.984375 29.191406 -62.183594 29.59375 -62.984375 C 31.792969 -67.785156 30.992188 -74.382812 27.992188 -78.78125 C 27.394531 -79.78125 26.394531 -80.582031 25.59375 -81.378906 L 25.394531 -81.378906 L 25.394531 -81.582031 C 22.996094 -83.378906 19.996094 -84.179688 16.597656 -83.980469 C 10.597656 -83.582031 4.800781 -80.382812 0.601562 -74.980469 C -4.398438 -68.582031 -6.199219 -60.386719 -4.800781 -51.789062 C -3.398438 -44.789062 0.199219 -39.390625 4 -34.191406 C 7.199219 -29.59375 10.597656 -24.59375 12.398438 -18.394531 C 1.601562 -14.195312 -5.597656 -6.597656 -7 2.199219 C -7.796875 6.796875 -6.597656 10.996094 -4 13.195312 C -2.800781 14.195312 -1.398438 14.796875 0.398438 15.195312 C 2 15.796875 3.800781 15.996094 5.597656 15.996094 C 9.597656 15.996094 13.996094 14.597656 17.597656 11.996094 C 22.195312 8.398438 27.59375 1.199219 26.992188 -13.398438 C 26.792969 -16.195312 26.59375 -18.59375 25.992188 -20.996094 C 43.988281 -29.992188 50.988281 -38.589844 51.1875 -39.191406 C 51.789062 -39.789062 51.585938 -40.589844 50.988281 -41.191406 Z M 6.199219 11.796875 C 3.199219 13.398438 -0.199219 12.398438 -2 10.996094 C -3.800781 9.398438 -4.597656 6.199219 -4 2.597656 C -3.597656 -0.199219 -1 -9.796875 12.996094 -15.394531 C 13.398438 -13.796875 13.597656 -12.195312 13.597656 -10.398438 C 14.195312 5.398438 9.398438 10.199219 6.199219 11.796875 Z M 6.199219 11.796875 "/></g></g></g><g fill="rgb(23.139954%, 3.919983%, 3.919983%)" fill-opacity="1"><g transform="translate(623.648307, 424.632747)"><g><path d="M 53.386719 -40.789062 C 52.585938 -41.191406 51.789062 -40.789062 51.386719 -39.992188 C 51.1875 -39.789062 36.589844 -9.996094 23.792969 2.398438 C 23.792969 2.398438 19.796875 5.597656 16.394531 3.597656 C 12.597656 1.398438 7.597656 -8.597656 13.796875 -49.1875 C 13.996094 -49.1875 13.996094 -49.1875 13.996094 -49.386719 C 21.59375 -57.785156 31.191406 -73.382812 38.789062 -89.777344 C 42.589844 -89.578125 46.1875 -89.378906 49.789062 -89.378906 C 60.386719 -89.378906 70.785156 -90.578125 79.179688 -93.976562 C 79.980469 -94.179688 80.179688 -95.175781 79.980469 -95.777344 C 79.78125 -96.578125 78.78125 -96.976562 77.980469 -96.777344 C 67.382812 -92.578125 53.585938 -91.777344 40.191406 -92.777344 C 48.386719 -110.773438 54.1875 -129.371094 52.1875 -139.566406 L 52.1875 -139.765625 C 51.386719 -143.566406 49.589844 -145.964844 46.789062 -147.367188 C 43.390625 -148.964844 39.589844 -148.765625 35.792969 -146.765625 C 25.992188 -141.167969 16.597656 -122.769531 9.597656 -96.777344 C 4.597656 -97.777344 0.398438 -98.777344 -3 -99.578125 C -13.195312 -102.175781 -21.996094 -101.777344 -26.992188 -98.578125 C -29.191406 -97.175781 -30.792969 -95.175781 -31.191406 -92.777344 C -31.394531 -91.976562 -30.792969 -91.179688 -29.992188 -90.980469 C -29.191406 -90.777344 -28.394531 -91.378906 -28.191406 -92.179688 C -27.992188 -93.777344 -26.992188 -95.175781 -25.394531 -96.175781 C -20.996094 -98.976562 -13.195312 -99.175781 -3.597656 -96.777344 L 8.796875 -93.976562 C 5.597656 -80.980469 2.800781 -66.183594 1 -50.386719 C -2.398438 -21.195312 -2.597656 -7.796875 0.601562 0.800781 C 2.398438 6 6 8.398438 8.796875 9.398438 C 10.398438 10.199219 12.195312 10.398438 13.996094 10.398438 C 16.195312 10.398438 18.195312 9.996094 19.796875 9.199219 C 21.59375 8.199219 23.59375 6.597656 25.59375 4.597656 L 25.792969 4.597656 C 38.992188 -8 53.386719 -37.390625 53.988281 -38.789062 C 54.386719 -39.589844 54.1875 -40.390625 53.386719 -40.789062 Z M 47.1875 -140.367188 C 48.589844 -140.367188 49.1875 -139.566406 49.386719 -138.96875 C 51.1875 -129.167969 45.1875 -110.773438 36.992188 -92.976562 C 32.191406 -93.378906 27.59375 -93.777344 23.195312 -94.578125 C 32.390625 -129.769531 42.191406 -140.167969 47.1875 -140.367188 Z M 15.796875 -61.1875 C 17.996094 -72.78125 20.195312 -82.980469 22.394531 -91.578125 C 26.59375 -90.980469 31.191406 -90.578125 35.792969 -90.179688 C 29.191406 -76.382812 21.394531 -63.183594 14.796875 -54.785156 C 14.996094 -56.785156 15.394531 -58.984375 15.796875 -61.1875 Z M 15.796875 -61.1875 "/></g></g></g><g fill="rgb(23.139954%, 3.919983%, 3.919983%)" fill-opacity="1"><g transform="translate(675.03607, 424.632747)"><g/></g></g><g fill="rgb(23.139954%, 3.919983%, 3.919983%)" fill-opacity="1"><g transform="translate(746.019197, 424.632747)"><g><path d="M 5 -4.800781 C 6 -4.597656 7 -4.398438 8 -4.398438 C 13.996094 -4.398438 20.59375 -9.597656 27.992188 -20.195312 C 34.191406 -29.191406 38.789062 -38.789062 38.789062 -38.789062 C 39.191406 -39.589844 38.789062 -40.390625 37.992188 -40.789062 C 37.390625 -41.191406 36.390625 -40.789062 36.191406 -40.191406 C 32.59375 -32.390625 23.195312 -15.796875 14.398438 -9.597656 L 14.195312 -9.597656 C 13.398438 -8.996094 13.195312 -9.199219 12.996094 -9.398438 C 11.597656 -10.199219 9.796875 -14.796875 10.597656 -24.195312 C 11.796875 -36.191406 16.796875 -51.1875 20.996094 -61.1875 C 22.394531 -64.386719 21.195312 -68.183594 18.195312 -70.183594 L 14.996094 -72.183594 C 13.796875 -72.984375 12.597656 -72.984375 11.398438 -72.78125 C 10.199219 -72.382812 9.199219 -71.382812 8.796875 -70.183594 C 4.199219 -59.585938 -6.597656 -23.792969 -0.398438 -9.996094 C 0.800781 -7.398438 2.597656 -5.597656 5 -4.800781 Z M 21.59375 -77.382812 C 22.59375 -76.980469 23.394531 -76.980469 24.195312 -76.980469 C 25.792969 -76.980469 27.792969 -77.980469 28.394531 -79.179688 L 32.992188 -86.980469 C 34.191406 -89.578125 34.390625 -91.777344 33.792969 -94.179688 C 32.792969 -96.578125 30.792969 -98.578125 28.394531 -99.777344 L 27.792969 -99.976562 C 25.195312 -101.175781 22.394531 -100.175781 21.195312 -97.976562 L 16.195312 -87.179688 C 14.796875 -83.980469 15.996094 -80.382812 19.195312 -78.78125 Z M 21.59375 -77.382812 "/></g></g></g><g fill="rgb(23.139954%, 3.919983%, 3.919983%)" fill-opacity="1"><g transform="translate(782.010601, 424.632747)"><g><path d="M 68.785156 -41.390625 C 67.984375 -41.589844 67.183594 -41.191406 66.785156 -40.589844 C 62.183594 -27.195312 54.1875 -13.996094 49.386719 -10.199219 C 49.1875 -9.996094 49.1875 -9.996094 48.988281 -9.996094 C 48.386719 -9.398438 47.789062 -9.199219 47.1875 -9.199219 C 46.988281 -8.996094 46.390625 -8.996094 45.789062 -10.199219 C 42.988281 -14.796875 48.988281 -36.191406 52.988281 -50.386719 C 55.988281 -60.386719 57.585938 -66.382812 57.386719 -68.582031 C 56.785156 -74.980469 52.789062 -81.78125 46.789062 -81.78125 C 42.988281 -81.78125 38.589844 -79.179688 33.792969 -74.382812 C 25.195312 -65.585938 16.796875 -50.988281 12.398438 -40.191406 C 12.597656 -49.988281 13.195312 -59.984375 14.597656 -66.984375 C 15.394531 -69.984375 13.996094 -73.183594 11.398438 -74.78125 L 7.796875 -76.980469 C 6.796875 -77.582031 5.796875 -77.582031 4.800781 -77.183594 C 3.800781 -76.78125 3.199219 -75.980469 2.800781 -74.980469 C -0.398438 -61.585938 -1.398438 -32.390625 2.398438 -15.195312 C 3.199219 -11.996094 5.796875 -9.796875 8.996094 -9.597656 L 10.199219 -9.398438 L 10.398438 -9.398438 C 11.398438 -9.398438 12.195312 -9.796875 12.796875 -10.597656 C 13.597656 -11.199219 13.996094 -12.195312 13.796875 -13.195312 C 13.195312 -16.996094 12.796875 -22.792969 12.597656 -29.191406 C 12.597656 -36.390625 23.792969 -59.984375 35.992188 -72.183594 C 37.792969 -74.183594 39.589844 -75.582031 41.191406 -76.78125 C 42.390625 -77.382812 44.390625 -77.78125 45.1875 -77.183594 C 45.988281 -76.382812 45.988281 -74.382812 45.1875 -71.78125 L 43.390625 -65.785156 C 39.390625 -53.1875 31.992188 -29.59375 31.792969 -16.195312 C 31.792969 -9.996094 32.792969 -6.597656 38.191406 -4.597656 C 39.992188 -4 41.589844 -3.597656 42.988281 -3.597656 C 46.988281 -3.597656 49.386719 -6 50.789062 -7.597656 L 51.1875 -7.796875 C 57.785156 -12.996094 65.785156 -28.59375 69.582031 -39.589844 C 69.984375 -40.191406 69.582031 -41.191406 68.785156 -41.390625 Z M 68.785156 -41.390625 "/></g></g></g><g fill="rgb(23.139954%, 3.919983%, 3.919983%)" fill-opacity="1"><g transform="translate(304.422361, 704.323776)"><g><path d="M 53.386719 -40.789062 C 52.585938 -41.191406 51.789062 -40.789062 51.386719 -39.992188 C 51.1875 -39.789062 36.589844 -9.996094 23.792969 2.398438 C 23.792969 2.398438 19.796875 5.597656 16.394531 3.597656 C 12.597656 1.398438 7.597656 -8.597656 13.796875 -49.1875 C 13.996094 -49.1875 13.996094 -49.1875 13.996094 -49.386719 C 21.59375 -57.785156 31.191406 -73.382812 38.789062 -89.777344 C 42.589844 -89.578125 46.1875 -89.378906 49.789062 -89.378906 C 60.386719 -89.378906 70.785156 -90.578125 79.179688 -93.976562 C 79.980469 -94.179688 80.179688 -95.175781 79.980469 -95.777344 C 79.78125 -96.578125 78.78125 -96.976562 77.980469 -96.777344 C 67.382812 -92.578125 53.585938 -91.777344 40.191406 -92.777344 C 48.386719 -110.773438 54.1875 -129.371094 52.1875 -139.566406 L 52.1875 -139.765625 C 51.386719 -143.566406 49.589844 -145.964844 46.789062 -147.367188 C 43.390625 -148.964844 39.589844 -148.765625 35.792969 -146.765625 C 25.992188 -141.167969 16.597656 -122.769531 9.597656 -96.777344 C 4.597656 -97.777344 0.398438 -98.777344 -3 -99.578125 C -13.195312 -102.175781 -21.996094 -101.777344 -26.992188 -98.578125 C -29.191406 -97.175781 -30.792969 -95.175781 -31.191406 -92.777344 C -31.394531 -91.976562 -30.792969 -91.179688 -29.992188 -90.980469 C -29.191406 -90.777344 -28.394531 -91.378906 -28.191406 -92.179688 C -27.992188 -93.777344 -26.992188 -95.175781 -25.394531 -96.175781 C -20.996094 -98.976562 -13.195312 -99.175781 -3.597656 -96.777344 L 8.796875 -93.976562 C 5.597656 -80.980469 2.800781 -66.183594 1 -50.386719 C -2.398438 -21.195312 -2.597656 -7.796875 0.601562 0.800781 C 2.398438 6 6 8.398438 8.796875 9.398438 C 10.398438 10.199219 12.195312 10.398438 13.996094 10.398438 C 16.195312 10.398438 18.195312 9.996094 19.796875 9.199219 C 21.59375 8.199219 23.59375 6.597656 25.59375 4.597656 L 25.792969 4.597656 C 38.992188 -8 53.386719 -37.390625 53.988281 -38.789062 C 54.386719 -39.589844 54.1875 -40.390625 53.386719 -40.789062 Z M 47.1875 -140.367188 C 48.589844 -140.367188 49.1875 -139.566406 49.386719 -138.96875 C 51.1875 -129.167969 45.1875 -110.773438 36.992188 -92.976562 C 32.191406 -93.378906 27.59375 -93.777344 23.195312 -94.578125 C 32.390625 -129.769531 42.191406 -140.167969 47.1875 -140.367188 Z M 15.796875 -61.1875 C 17.996094 -72.78125 20.195312 -82.980469 22.394531 -91.578125 C 26.59375 -90.980469 31.191406 -90.578125 35.792969 -90.179688 C 29.191406 -76.382812 21.394531 -63.183594 14.796875 -54.785156 C 14.996094 -56.785156 15.394531 -58.984375 15.796875 -61.1875 Z M 15.796875 -61.1875 "/></g></g></g><g fill="rgb(23.139954%, 3.919983%, 3.919983%)" fill-opacity="1"><g transform="translate(355.810136, 704.323776)"><g><path d="M 85.378906 -41.390625 C 84.78125 -41.789062 83.78125 -41.390625 83.378906 -40.789062 C 79.78125 -34.390625 70.984375 -20.195312 63.785156 -13.398438 C 63.785156 -13.195312 63.585938 -13.195312 63.585938 -13.195312 L 63.585938 -12.996094 C 61.585938 -11.199219 59.785156 -9.996094 58.1875 -9.597656 C 57.386719 -9.398438 56.785156 -9.597656 56.585938 -9.796875 C 54.585938 -10.796875 57.585938 -20.195312 59.785156 -27.59375 C 61.585938 -33.191406 63.785156 -39.789062 64.984375 -45.988281 C 67.183594 -57.585938 66.984375 -65.585938 63.984375 -69.984375 C 62.585938 -71.78125 60.785156 -72.984375 58.585938 -73.382812 C 56.386719 -73.78125 53.585938 -72.78125 50.589844 -70.582031 C 47.789062 -68.582031 44.789062 -65.585938 41.789062 -61.785156 C 29.59375 -46.789062 15.796875 -20.195312 9.796875 0.398438 C 9.796875 -9.398438 10.597656 -19.996094 11.996094 -30.792969 C 12.398438 -30.792969 12.996094 -30.992188 13.195312 -31.394531 C 32.992188 -61.1875 46.789062 -87.578125 53.988281 -109.574219 C 59.785156 -126.570312 60.1875 -137.566406 59.585938 -143.964844 L 59.585938 -144.367188 C 59.386719 -145.964844 59.1875 -147.164062 58.785156 -147.964844 C 57.984375 -151.765625 56.386719 -154.5625 54.386719 -155.5625 C 49.1875 -158.363281 45.589844 -156.5625 41.589844 -153.164062 C 34.992188 -147.566406 18.59375 -127.769531 4.199219 -63.585938 C -4.800781 -22.996094 -3.800781 9.796875 -2.800781 21.792969 C -2.597656 25.992188 -0.398438 29.792969 2.800781 31.792969 L 7.199219 34.792969 C 7.796875 34.992188 8.398438 35.191406 8.796875 35.191406 C 9.398438 35.191406 9.996094 34.992188 10.597656 34.59375 C 11.796875 33.792969 12.398438 32.390625 11.996094 30.992188 C 10.996094 26.195312 10.398438 20.195312 9.996094 13.195312 C 12.597656 -7 29.191406 -41.789062 43.789062 -59.585938 C 43.789062 -59.785156 43.988281 -59.785156 43.988281 -59.984375 C 45.1875 -61.1875 49.589844 -63.585938 51.386719 -62.386719 C 53.789062 -60.585938 52.585938 -52.386719 47.1875 -37.390625 C 43.390625 -26.59375 41.589844 -20.195312 42.390625 -14.597656 C 43.191406 -9.398438 46.789062 -6 49.789062 -4.597656 C 50.789062 -4 51.988281 -3.800781 52.988281 -3.800781 C 59.386719 -3.800781 65.382812 -10.796875 65.785156 -11.199219 C 74.582031 -19.59375 84.578125 -36.792969 85.980469 -39.191406 C 86.378906 -39.992188 86.179688 -40.992188 85.378906 -41.390625 Z M 16.996094 -58.785156 C 20.195312 -71.984375 27.195312 -95.378906 34.191406 -114.371094 C 46.1875 -147.164062 51.585938 -149.363281 52.789062 -149.363281 C 55.585938 -148.964844 56.386719 -145.164062 56.585938 -143.964844 C 57.984375 -132.570312 55.386719 -100.976562 12.597656 -35.792969 C 13.796875 -43.589844 15.195312 -51.386719 16.996094 -58.785156 Z M 16.996094 -58.785156 "/></g></g></g><g fill="rgb(23.139954%, 3.919983%, 3.919983%)" fill-opacity="1"><g transform="translate(438.790412, 704.323776)"><g><path d="M 61.984375 -40.992188 C 61.386719 -41.390625 60.585938 -41.191406 59.984375 -40.589844 C 43.191406 -18.195312 32.992188 -9.199219 24.394531 -6 L 24.195312 -6 C 20.59375 -5 17.394531 -5.796875 15.195312 -8.398438 C 10.796875 -13.398438 10.597656 -23.792969 14.597656 -35.390625 C 18.59375 -36.191406 34.59375 -39.789062 41.789062 -53.1875 C 43.988281 -57.585938 44.390625 -61.1875 43.988281 -63.984375 C 43.988281 -64.585938 43.789062 -65.382812 43.589844 -65.984375 C 43.191406 -67.183594 42.789062 -67.984375 42.390625 -68.785156 C 40.191406 -72.382812 36.191406 -74.582031 32.191406 -74.582031 C 22.996094 -74.582031 9.796875 -65.382812 0 -40.191406 C -5.796875 -24.992188 -2.800781 -15.597656 0.800781 -10.398438 C 5.199219 -4 11.796875 -1.601562 15.996094 -1.601562 C 18.996094 -1.601562 21.996094 -2.199219 24.992188 -3.199219 C 24.992188 -3.199219 25.195312 -3.199219 25.195312 -3.398438 C 35.589844 -7 46.390625 -17.796875 62.386719 -38.789062 C 62.785156 -39.589844 62.785156 -40.390625 61.984375 -40.992188 Z M 16.195312 -39.390625 C 24.59375 -59.585938 31.59375 -65.585938 35.992188 -66.984375 C 37.390625 -67.585938 38.589844 -67.382812 39.589844 -66.785156 L 40.789062 -65.183594 C 41.789062 -62.183594 41.191406 -58.386719 39.191406 -54.585938 C 33.390625 -43.988281 21.195312 -39.992188 15.796875 -38.789062 Z M 16.195312 -39.390625 "/></g></g></g><g fill="rgb(23.139954%, 3.919983%, 3.919983%)" fill-opacity="1"><g transform="translate(498.376219, 704.323776)"><g/></g></g><g fill="rgb(23.139954%, 3.919983%, 3.919983%)" fill-opacity="1"><g transform="translate(569.359346, 704.323776)"><g><path d="M 98.175781 -40.992188 C 83.179688 -25.792969 64.585938 -25.394531 46.589844 -24.992188 C 43.988281 -24.992188 41.390625 -24.792969 38.789062 -24.792969 C 53.1875 -61.585938 66.183594 -122.972656 70.785156 -144.765625 C 70.984375 -145.765625 70.382812 -146.964844 68.984375 -148.164062 C 66.785156 -149.964844 60.984375 -153.164062 58.1875 -152.164062 C 57.386719 -151.964844 56.785156 -151.164062 56.585938 -150.363281 C 45.988281 -92.578125 32.59375 -45.988281 23.394531 -22.996094 C 14.195312 -20.796875 6.398438 -16.394531 1.199219 -6.398438 C 0.199219 -4.597656 -0.199219 -2.597656 0 -0.800781 L 0 -0.199219 C 0 -0.199219 0 0 0.199219 0.199219 C 0.601562 2.800781 2 5 4.398438 6.398438 C 6 7.597656 8.199219 8.199219 10.597656 8.199219 C 15.394531 8.199219 21.195312 5.597656 26.59375 -1.199219 C 30.191406 -5.597656 33.992188 -12.796875 37.589844 -21.792969 C 40.390625 -21.792969 43.589844 -21.996094 46.589844 -21.996094 C 64.386719 -22.394531 84.378906 -22.792969 100.175781 -38.992188 C 100.777344 -39.589844 100.777344 -40.589844 100.175781 -40.992188 C 99.578125 -41.589844 98.578125 -41.589844 98.175781 -40.992188 Z M 16.996094 -9.597656 C 11.199219 -1.199219 6.199219 1.398438 4.398438 1 C 4 1 3.398438 0.800781 3 -0.398438 C 2.800781 -2 3 -3.597656 3.800781 -5 C 8.199219 -13.398438 14.398438 -17.394531 21.996094 -19.59375 C 20.195312 -14.996094 18.394531 -11.796875 16.996094 -9.597656 Z M 16.996094 -9.597656 "/></g></g></g><g fill="rgb(23.139954%, 3.919983%, 3.919983%)" fill-opacity="1"><g transform="translate(666.536252, 704.323776)"><g><path d="M 74.980469 -40.789062 C 74.582031 -41.390625 73.582031 -41.789062 72.984375 -41.191406 C 72.78125 -41.191406 57.1875 -31.394531 42.589844 -34.792969 C 44.589844 -40.789062 45.390625 -46.988281 45.1875 -52.585938 C 44.589844 -62.785156 40.390625 -69.984375 33.191406 -72.582031 C 28.792969 -74.183594 24.394531 -73.984375 19.996094 -71.78125 C 11.597656 -67.382812 4.398438 -55.988281 0 -40.390625 C -3.800781 -26.792969 0.800781 -16.996094 6.199219 -12.398438 C 9.398438 -9.796875 12.996094 -8.597656 16.796875 -8.597656 C 19.394531 -8.597656 21.792969 -9.199219 24.195312 -10.398438 C 32.191406 -14.195312 38.191406 -22.59375 41.589844 -31.792969 C 43.988281 -31.394531 46.390625 -30.992188 48.988281 -30.992188 C 51.585938 -30.992188 54.585938 -31.394531 57.585938 -31.992188 C 66.984375 -33.992188 74.183594 -38.589844 74.582031 -38.789062 C 75.183594 -39.191406 75.382812 -40.191406 74.980469 -40.789062 Z M 27.195312 -15.796875 C 23.996094 -13.398438 20.59375 -13.195312 17.597656 -15.195312 C 13.195312 -18.195312 9.597656 -26.59375 13.398438 -40.789062 C 14.996094 -46.789062 17.394531 -51.988281 20.394531 -55.988281 C 20.59375 -52.1875 21.996094 -46.988281 26.992188 -41.191406 C 30.191406 -37.390625 33.792969 -34.59375 38.191406 -32.992188 C 38.390625 -32.792969 38.589844 -32.792969 38.789062 -32.792969 C 36.191406 -25.992188 32.191406 -19.796875 27.195312 -15.796875 Z M 39.789062 -35.589844 C 39.589844 -35.589844 39.390625 -35.589844 39.191406 -35.792969 C 36.191406 -36.992188 33.792969 -39.589844 32.390625 -43.191406 C 29.191406 -51.386719 31.191406 -62.386719 32.390625 -65.785156 C 32.992188 -65.984375 33.390625 -65.984375 33.792969 -65.984375 C 36.589844 -66.382812 38.789062 -64.984375 39.992188 -62.183594 C 41.589844 -58.785156 42.191406 -54.988281 42.191406 -52.386719 C 42.589844 -47.1875 41.589844 -41.191406 39.789062 -35.589844 Z M 39.789062 -35.589844 "/></g></g></g><g fill="rgb(23.139954%, 3.919983%, 3.919983%)" fill-opacity="1"><g transform="translate(737.119492, 704.323776)"><g><path d="M 63.785156 -41.390625 C 62.984375 -41.789062 62.183594 -41.390625 61.785156 -40.589844 C 53.789062 -23.996094 44.191406 -11.597656 36.390625 -5 C 34.992188 -4.199219 33.390625 -3.398438 32.191406 -3.800781 C 31.992188 -3.800781 31.59375 -4 31.191406 -4.800781 C 28.792969 -9.996094 32.390625 -26.992188 37.191406 -39.390625 C 37.792969 -40.992188 37.390625 -42.789062 36.191406 -43.789062 C 34.992188 -44.988281 33.191406 -45.390625 31.792969 -44.789062 C 26.59375 -42.589844 19.195312 -39.992188 13.796875 -40.191406 C 11.398438 -40.191406 9.996094 -40.789062 9.398438 -41.789062 C 7.796875 -44.390625 10.597656 -51.1875 12.796875 -55.988281 C 14.398438 -59.386719 13.597656 -63.386719 10.597656 -65.785156 L 8.796875 -67.382812 C 7.597656 -68.582031 5.796875 -68.984375 4.199219 -68.582031 C 2.597656 -68.183594 1.199219 -67.183594 0.601562 -65.585938 C -5.199219 -53.1875 -6.796875 -45.988281 -0.800781 -39.789062 C 4.199219 -34.59375 15.996094 -35.792969 21.195312 -36.589844 C 15.996094 -23.59375 13.398438 -7.796875 18.195312 -0.398438 C 19.996094 2 22.394531 3.398438 25.394531 3.398438 L 25.59375 3.398438 C 29.394531 3.398438 33.992188 1 38.789062 -3.199219 C 39.390625 -3.597656 39.589844 -4 39.789062 -4.199219 C 48.1875 -11.597656 57.1875 -24.195312 64.386719 -39.390625 C 64.785156 -40.191406 64.585938 -40.992188 63.785156 -41.390625 Z M 63.785156 -41.390625 "/></g></g></g><g fill="rgb(23.139954%, 3.919983%, 3.919983%)" fill-opacity="1"><g transform="translate(798.704835, 704.323776)"><g><path d="M 89.578125 -41.390625 C 88.980469 -41.789062 87.980469 -41.390625 87.578125 -40.789062 C 82.78125 -31.792969 69.984375 -11.796875 59.785156 -4.398438 C 59.785156 -4.199219 59.585938 -4.199219 59.585938 -4.199219 C 58.585938 -3.597656 57.1875 -3 55.785156 -4 C 54.1875 -5.199219 47.390625 -12.796875 56.386719 -54.988281 C 80.382812 -79.179688 107.574219 -127.96875 103.976562 -147.566406 C 103.375 -151.363281 101.375 -153.964844 98.578125 -155.363281 C 94.378906 -156.964844 90.179688 -156.761719 85.578125 -154.5625 C 69.984375 -146.566406 54.386719 -115.171875 44.589844 -72.582031 L 43.988281 -70.183594 C 42.789062 -72.183594 41.390625 -73.984375 39.390625 -75.183594 C 35.992188 -77.382812 31.792969 -77.582031 27.195312 -75.78125 C 16.195312 -71.78125 -0.398438 -54.785156 -1 -30.992188 C -1.199219 -20.996094 2.597656 -16.597656 6 -14.597656 C 8.199219 -13.398438 10.796875 -12.796875 13.398438 -12.796875 C 16.796875 -12.796875 20.394531 -13.796875 22.996094 -15.394531 C 29.59375 -19.394531 33.992188 -25.195312 37.792969 -31.792969 C 36.792969 -18.394531 38.191406 -9.597656 41.789062 -4.398438 C 44.191406 -1 47.589844 1 51.988281 1.398438 C 52.1875 1.601562 52.585938 1.601562 52.988281 1.601562 C 55.1875 1.601562 57.984375 0.601562 60.785156 -1.398438 C 60.984375 -1.601562 61.1875 -1.601562 61.1875 -1.800781 C 61.386719 -1.800781 61.386719 -1.800781 61.386719 -2 C 65.984375 -5.199219 71.183594 -10.796875 76.78125 -18.59375 C 84.378906 -28.792969 90.179688 -39.191406 90.179688 -39.390625 C 90.578125 -39.992188 90.378906 -40.992188 89.578125 -41.390625 Z M 62.183594 -78.980469 C 76.382812 -131.570312 87.78125 -144.164062 93.378906 -147.164062 C 95.175781 -148.164062 96.578125 -148.363281 97.976562 -147.765625 C 100.777344 -146.964844 101.175781 -142.566406 101.375 -141.765625 C 99.777344 -122.570312 79.179688 -83.980469 57.585938 -60.585938 Z M 38.390625 -39.390625 C 33.992188 -30.59375 29.394531 -22.792969 21.59375 -17.996094 C 20.195312 -17.394531 18.195312 -16.996094 16.597656 -18.59375 C 13.195312 -21.792969 12.195312 -30.394531 17.394531 -42.988281 C 25.394531 -62.785156 38.191406 -68.183594 39.589844 -68.183594 C 41.390625 -68.183594 41.988281 -67.183594 42.390625 -66.585938 C 42.589844 -65.984375 42.789062 -65.382812 42.789062 -64.984375 C 40.789062 -55.1875 39.390625 -46.789062 38.390625 -39.390625 Z M 38.390625 -39.390625 "/></g></g></g><g fill="rgb(23.139954%, 3.919983%, 3.919983%)" fill-opacity="1"><g transform="translate(346.507238, 984.014806)"><g><path d="M 79.582031 -39.992188 C 79.582031 -40.789062 78.980469 -41.390625 78.179688 -41.390625 C 70.984375 -41.390625 66.382812 -49.789062 65.382812 -53.585938 C 65.183594 -54.1875 64.585938 -54.585938 63.984375 -54.585938 C 63.183594 -54.585938 62.585938 -53.988281 62.585938 -53.1875 C 61.984375 -45.390625 59.984375 -34.59375 56.785156 -27.394531 C 56.386719 -26.59375 54.988281 -24.792969 52.988281 -24.792969 C 51.988281 -24.792969 51.1875 -25.195312 50.386719 -25.992188 C 46.390625 -30.792969 48.589844 -47.789062 49.789062 -56.988281 C 50.386719 -60.585938 48.1875 -63.585938 44.789062 -64.386719 L 42.789062 -64.785156 C 41.789062 -64.984375 40.589844 -64.785156 39.789062 -64.183594 C 38.789062 -63.585938 38.191406 -62.585938 37.992188 -61.585938 C 37.589844 -60.1875 36.792969 -55.1875 36.390625 -48.988281 C 34.191406 -39.589844 29.792969 -21.59375 23.792969 -10.996094 L 23.394531 -10.597656 C 23.394531 -10.398438 21.792969 -6.796875 18.996094 -7.199219 C 18.59375 -7.398438 18.195312 -7.796875 17.796875 -8.398438 C 13.796875 -14.597656 13.195312 -42.390625 21.195312 -69.984375 C 22.394531 -73.582031 20.996094 -77.582031 17.996094 -79.582031 L 15.195312 -81.582031 C 13.996094 -82.582031 12.597656 -82.78125 11.199219 -82.378906 C 9.996094 -81.980469 8.796875 -80.980469 8.398438 -79.582031 C 3.597656 -67.183594 0.199219 -49.1875 -0.398438 -33.992188 C -0.800781 -20.59375 0.800781 -4 10.597656 0.199219 C 11.796875 0.601562 12.796875 1 13.996094 1 C 15.394531 1 16.597656 0.601562 17.996094 -0.199219 C 20.59375 -1.601562 22.792969 -4 24.992188 -7.398438 C 25.59375 -8.398438 25.992188 -9.199219 26.195312 -9.199219 L 26.195312 -9.398438 C 30.394531 -16.996094 33.792969 -27.195312 36.191406 -36.191406 C 36.792969 -29.992188 38.191406 -23.996094 41.191406 -20.195312 C 43.390625 -17.796875 45.988281 -16.394531 49.1875 -16.394531 C 59.386719 -16.394531 63.386719 -36.992188 64.785156 -47.390625 C 67.382812 -43.191406 71.984375 -38.589844 78.179688 -38.589844 C 78.980469 -38.589844 79.582031 -39.191406 79.582031 -39.992188 Z M 79.582031 -39.992188 "/></g></g></g><g fill="rgb(23.139954%, 3.919983%, 3.919983%)" fill-opacity="1"><g transform="translate(424.688657, 984.014806)"><g><path d="M 5 -4.800781 C 6 -4.597656 7 -4.398438 8 -4.398438 C 13.996094 -4.398438 20.59375 -9.597656 27.992188 -20.195312 C 34.191406 -29.191406 38.789062 -38.789062 38.789062 -38.789062 C 39.191406 -39.589844 38.789062 -40.390625 37.992188 -40.789062 C 37.390625 -41.191406 36.390625 -40.789062 36.191406 -40.191406 C 32.59375 -32.390625 23.195312 -15.796875 14.398438 -9.597656 L 14.195312 -9.597656 C 13.398438 -8.996094 13.195312 -9.199219 12.996094 -9.398438 C 11.597656 -10.199219 9.796875 -14.796875 10.597656 -24.195312 C 11.796875 -36.191406 16.796875 -51.1875 20.996094 -61.1875 C 22.394531 -64.386719 21.195312 -68.183594 18.195312 -70.183594 L 14.996094 -72.183594 C 13.796875 -72.984375 12.597656 -72.984375 11.398438 -72.78125 C 10.199219 -72.382812 9.199219 -71.382812 8.796875 -70.183594 C 4.199219 -59.585938 -6.597656 -23.792969 -0.398438 -9.996094 C 0.800781 -7.398438 2.597656 -5.597656 5 -4.800781 Z M 21.59375 -77.382812 C 22.59375 -76.980469 23.394531 -76.980469 24.195312 -76.980469 C 25.792969 -76.980469 27.792969 -77.980469 28.394531 -79.179688 L 32.992188 -86.980469 C 34.191406 -89.578125 34.390625 -91.777344 33.792969 -94.179688 C 32.792969 -96.578125 30.792969 -98.578125 28.394531 -99.777344 L 27.792969 -99.976562 C 25.195312 -101.175781 22.394531 -100.175781 21.195312 -97.976562 L 16.195312 -87.179688 C 14.796875 -83.980469 15.996094 -80.382812 19.195312 -78.78125 Z M 21.59375 -77.382812 "/></g></g></g><g fill="rgb(23.139954%, 3.919983%, 3.919983%)" fill-opacity="1"><g transform="translate(460.680084, 984.014806)"><g><path d="M 53.386719 -40.789062 C 52.585938 -41.191406 51.789062 -40.789062 51.386719 -39.992188 C 51.1875 -39.789062 36.589844 -9.996094 23.792969 2.398438 C 23.792969 2.398438 19.796875 5.597656 16.394531 3.597656 C 12.597656 1.398438 7.597656 -8.597656 13.796875 -49.1875 C 13.996094 -49.1875 13.996094 -49.1875 13.996094 -49.386719 C 21.59375 -57.785156 31.191406 -73.382812 38.789062 -89.777344 C 42.589844 -89.578125 46.1875 -89.378906 49.789062 -89.378906 C 60.386719 -89.378906 70.785156 -90.578125 79.179688 -93.976562 C 79.980469 -94.179688 80.179688 -95.175781 79.980469 -95.777344 C 79.78125 -96.578125 78.78125 -96.976562 77.980469 -96.777344 C 67.382812 -92.578125 53.585938 -91.777344 40.191406 -92.777344 C 48.386719 -110.773438 54.1875 -129.371094 52.1875 -139.566406 L 52.1875 -139.765625 C 51.386719 -143.566406 49.589844 -145.964844 46.789062 -147.367188 C 43.390625 -148.964844 39.589844 -148.765625 35.792969 -146.765625 C 25.992188 -141.167969 16.597656 -122.769531 9.597656 -96.777344 C 4.597656 -97.777344 0.398438 -98.777344 -3 -99.578125 C -13.195312 -102.175781 -21.996094 -101.777344 -26.992188 -98.578125 C -29.191406 -97.175781 -30.792969 -95.175781 -31.191406 -92.777344 C -31.394531 -91.976562 -30.792969 -91.179688 -29.992188 -90.980469 C -29.191406 -90.777344 -28.394531 -91.378906 -28.191406 -92.179688 C -27.992188 -93.777344 -26.992188 -95.175781 -25.394531 -96.175781 C -20.996094 -98.976562 -13.195312 -99.175781 -3.597656 -96.777344 L 8.796875 -93.976562 C 5.597656 -80.980469 2.800781 -66.183594 1 -50.386719 C -2.398438 -21.195312 -2.597656 -7.796875 0.601562 0.800781 C 2.398438 6 6 8.398438 8.796875 9.398438 C 10.398438 10.199219 12.195312 10.398438 13.996094 10.398438 C 16.195312 10.398438 18.195312 9.996094 19.796875 9.199219 C 21.59375 8.199219 23.59375 6.597656 25.59375 4.597656 L 25.792969 4.597656 C 38.992188 -8 53.386719 -37.390625 53.988281 -38.789062 C 54.386719 -39.589844 54.1875 -40.390625 53.386719 -40.789062 Z M 47.1875 -140.367188 C 48.589844 -140.367188 49.1875 -139.566406 49.386719 -138.96875 C 51.1875 -129.167969 45.1875 -110.773438 36.992188 -92.976562 C 32.191406 -93.378906 27.59375 -93.777344 23.195312 -94.578125 C 32.390625 -129.769531 42.191406 -140.167969 47.1875 -140.367188 Z M 15.796875 -61.1875 C 17.996094 -72.78125 20.195312 -82.980469 22.394531 -91.578125 C 26.59375 -90.980469 31.191406 -90.578125 35.792969 -90.179688 C 29.191406 -76.382812 21.394531 -63.183594 14.796875 -54.785156 C 14.996094 -56.785156 15.394531 -58.984375 15.796875 -61.1875 Z M 15.796875 -61.1875 "/></g></g></g><g fill="rgb(23.139954%, 3.919983%, 3.919983%)" fill-opacity="1"><g transform="translate(512.067859, 984.014806)"><g><path d="M 85.378906 -41.390625 C 84.78125 -41.789062 83.78125 -41.390625 83.378906 -40.789062 C 79.78125 -34.390625 70.984375 -20.195312 63.785156 -13.398438 C 63.785156 -13.195312 63.585938 -13.195312 63.585938 -13.195312 L 63.585938 -12.996094 C 61.585938 -11.199219 59.785156 -9.996094 58.1875 -9.597656 C 57.386719 -9.398438 56.785156 -9.597656 56.585938 -9.796875 C 54.585938 -10.796875 57.585938 -20.195312 59.785156 -27.59375 C 61.585938 -33.191406 63.785156 -39.789062 64.984375 -45.988281 C 67.183594 -57.585938 66.984375 -65.585938 63.984375 -69.984375 C 62.585938 -71.78125 60.785156 -72.984375 58.585938 -73.382812 C 56.386719 -73.78125 53.585938 -72.78125 50.589844 -70.582031 C 47.789062 -68.582031 44.789062 -65.585938 41.789062 -61.785156 C 29.59375 -46.789062 15.796875 -20.195312 9.796875 0.398438 C 9.796875 -9.398438 10.597656 -19.996094 11.996094 -30.792969 C 12.398438 -30.792969 12.996094 -30.992188 13.195312 -31.394531 C 32.992188 -61.1875 46.789062 -87.578125 53.988281 -109.574219 C 59.785156 -126.570312 60.1875 -137.566406 59.585938 -143.964844 L 59.585938 -144.367188 C 59.386719 -145.964844 59.1875 -147.164062 58.785156 -147.964844 C 57.984375 -151.765625 56.386719 -154.5625 54.386719 -155.5625 C 49.1875 -158.363281 45.589844 -156.5625 41.589844 -153.164062 C 34.992188 -147.566406 18.59375 -127.769531 4.199219 -63.585938 C -4.800781 -22.996094 -3.800781 9.796875 -2.800781 21.792969 C -2.597656 25.992188 -0.398438 29.792969 2.800781 31.792969 L 7.199219 34.792969 C 7.796875 34.992188 8.398438 35.191406 8.796875 35.191406 C 9.398438 35.191406 9.996094 34.992188 10.597656 34.59375 C 11.796875 33.792969 12.398438 32.390625 11.996094 30.992188 C 10.996094 26.195312 10.398438 20.195312 9.996094 13.195312 C 12.597656 -7 29.191406 -41.789062 43.789062 -59.585938 C 43.789062 -59.785156 43.988281 -59.785156 43.988281 -59.984375 C 45.1875 -61.1875 49.589844 -63.585938 51.386719 -62.386719 C 53.789062 -60.585938 52.585938 -52.386719 47.1875 -37.390625 C 43.390625 -26.59375 41.589844 -20.195312 42.390625 -14.597656 C 43.191406 -9.398438 46.789062 -6 49.789062 -4.597656 C 50.789062 -4 51.988281 -3.800781 52.988281 -3.800781 C 59.386719 -3.800781 65.382812 -10.796875 65.785156 -11.199219 C 74.582031 -19.59375 84.578125 -36.792969 85.980469 -39.191406 C 86.378906 -39.992188 86.179688 -40.992188 85.378906 -41.390625 Z M 16.996094 -58.785156 C 20.195312 -71.984375 27.195312 -95.378906 34.191406 -114.371094 C 46.1875 -147.164062 51.585938 -149.363281 52.789062 -149.363281 C 55.585938 -148.964844 56.386719 -145.164062 56.585938 -143.964844 C 57.984375 -132.570312 55.386719 -100.976562 12.597656 -35.792969 C 13.796875 -43.589844 15.195312 -51.386719 16.996094 -58.785156 Z M 16.996094 -58.785156 "/></g></g></g><g fill="rgb(23.139954%, 3.919983%, 3.919983%)" fill-opacity="1"><g transform="translate(595.048135, 984.014806)"><g/></g></g><g fill="rgb(23.139954%, 3.919983%, 3.919983%)" fill-opacity="1"><g transform="translate(666.031239, 984.014806)"><g><path d="M 72.582031 -41.390625 C 71.78125 -41.589844 70.984375 -41.191406 70.785156 -40.589844 C 67.984375 -26.394531 62.386719 -7 56.386719 3.800781 C 55.386719 5 52.789062 8 49.988281 6.398438 C 48.589844 5.597656 46.589844 -2.199219 49.1875 -21.792969 C 51.386719 -38.992188 56.386719 -57.585938 62.183594 -71.382812 C 63.386719 -74.582031 62.585938 -78.582031 59.386719 -81.378906 L 56.386719 -84.179688 C 55.386719 -85.179688 53.789062 -85.78125 52.386719 -85.78125 C 50.988281 -85.578125 49.988281 -84.980469 48.988281 -83.78125 C 46.1875 -78.382812 43.191406 -70.785156 40.789062 -61.984375 L 40.789062 -62.386719 C 39.589844 -67.183594 36.792969 -70.785156 33.191406 -72.582031 C 30.394531 -73.78125 26.195312 -73.78125 21.996094 -72.183594 C 16.394531 -69.984375 6 -63.386719 0.601562 -43.589844 C -3.398438 -26.992188 -0.601562 -17.996094 2 -13.195312 C 5.199219 -8.398438 9.398438 -7.199219 10.996094 -6.796875 C 11.796875 -6.597656 12.398438 -6.597656 13.195312 -6.597656 C 17.597656 -6.597656 22.792969 -9.199219 27.59375 -15.796875 C 27.792969 -16.195312 27.992188 -16.394531 28.394531 -16.597656 C 28.394531 -16.796875 28.59375 -16.796875 28.59375 -16.996094 C 30.792969 -20.195312 32.992188 -23.996094 34.992188 -28.992188 C 34.191406 -17.394531 33.992188 -0.199219 39.390625 8.796875 C 41.390625 12.195312 43.988281 14.195312 47.390625 14.597656 L 48.1875 14.597656 C 54.585938 14.597656 60.386719 5.796875 66.585938 -12.195312 C 70.984375 -25.59375 73.78125 -39.390625 73.984375 -39.589844 C 73.78125 -40.390625 73.382812 -41.191406 72.582031 -41.390625 Z M 38.992188 -53.988281 C 37.992188 -49.988281 37.390625 -45.988281 36.792969 -41.789062 C 33.191406 -31.394531 29.59375 -23.792969 25.992188 -18.59375 C 22.792969 -14.398438 18.996094 -14.195312 17.394531 -15.195312 C 15.597656 -16.195312 11.398438 -18.59375 16.195312 -41.589844 C 20.59375 -63.183594 29.992188 -66.785156 32.992188 -66.382812 C 35.191406 -65.984375 37.191406 -63.785156 37.992188 -61.585938 C 38.589844 -59.585938 38.992188 -56.988281 38.992188 -53.988281 Z M 38.992188 -53.988281 "/></g></g></g><g fill="rgb(23.139954%, 3.919983%, 3.919983%)" fill-opacity="1"><g transform="translate(737.014366, 984.014806)"><g><path d="M 55.785156 -41.390625 C 54.988281 -41.789062 54.1875 -41.390625 53.789062 -40.589844 C 53.585938 -40.390625 38.992188 -10.597656 25.992188 2.199219 L 25.792969 2.199219 C 25.792969 2.199219 21.59375 5.597656 18.195312 3.597656 C 14.195312 1.199219 8.996094 -9.199219 15.394531 -51.1875 C 15.597656 -51.1875 15.597656 -51.1875 15.597656 -51.386719 C 32.792969 -70.183594 58.984375 -124.171875 55.1875 -144.566406 L 54.988281 -144.765625 C 54.386719 -148.566406 52.386719 -151.164062 49.589844 -152.5625 C 46.1875 -154.164062 42.589844 -153.964844 38.992188 -152.164062 C 24.195312 -144.164062 9.398438 -104.976562 1.601562 -52.585938 C -2.199219 -27.792969 -2.199219 -10.398438 1.800781 0.601562 C 3.800781 6 7.398438 8.398438 10.199219 9.398438 C 11.996094 9.996094 13.996094 10.398438 15.796875 10.398438 C 17.796875 10.398438 19.996094 9.996094 21.59375 9.199219 C 23.59375 8 25.59375 6.398438 27.792969 4.398438 C 41.390625 -8.597656 55.785156 -37.992188 56.386719 -39.390625 C 56.785156 -40.191406 56.386719 -40.992188 55.785156 -41.390625 Z M 17.597656 -63.585938 C 28.992188 -127.96875 43.390625 -145.367188 49.988281 -145.367188 C 51.386719 -145.566406 51.988281 -144.765625 52.1875 -143.964844 C 55.585938 -125.769531 32.59375 -77.183594 16.394531 -56.785156 Z M 17.597656 -63.585938 "/></g></g></g><g fill="rgb(23.139954%, 3.919983%, 3.919983%)" fill-opacity="1"><g transform="translate(790.401654, 984.014806)"><g><path d="M 55.785156 -41.390625 C 54.988281 -41.789062 54.1875 -41.390625 53.789062 -40.589844 C 53.585938 -40.390625 38.992188 -10.597656 25.992188 2.199219 L 25.792969 2.199219 C 25.792969 2.199219 21.59375 5.597656 18.195312 3.597656 C 14.195312 1.199219 8.996094 -9.199219 15.394531 -51.1875 C 15.597656 -51.1875 15.597656 -51.1875 15.597656 -51.386719 C 32.792969 -70.183594 58.984375 -124.171875 55.1875 -144.566406 L 54.988281 -144.765625 C 54.386719 -148.566406 52.386719 -151.164062 49.589844 -152.5625 C 46.1875 -154.164062 42.589844 -153.964844 38.992188 -152.164062 C 24.195312 -144.164062 9.398438 -104.976562 1.601562 -52.585938 C -2.199219 -27.792969 -2.199219 -10.398438 1.800781 0.601562 C 3.800781 6 7.398438 8.398438 10.199219 9.398438 C 11.996094 9.996094 13.996094 10.398438 15.796875 10.398438 C 17.796875 10.398438 19.996094 9.996094 21.59375 9.199219 C 23.59375 8 25.59375 6.398438 27.792969 4.398438 C 41.390625 -8.597656 55.785156 -37.992188 56.386719 -39.390625 C 56.785156 -40.191406 56.386719 -40.992188 55.785156 -41.390625 Z M 17.597656 -63.585938 C 28.992188 -127.96875 43.390625 -145.367188 49.988281 -145.367188 C 51.386719 -145.566406 51.988281 -144.765625 52.1875 -143.964844 C 55.585938 -125.769531 32.59375 -77.183594 16.394531 -56.785156 Z M 17.597656 -63.585938 "/></g></g></g><g fill="rgb(23.139954%, 3.919983%, 3.919983%)" fill-opacity="1"><g transform="translate(251.031275, 1263.705836)"><g><path d="M 81.378906 -41.191406 C 80.78125 -41.589844 79.980469 -41.589844 79.382812 -40.992188 C 72.984375 -32.59375 62.386719 -24.59375 50.386719 -16.394531 C 52.988281 -31.992188 55.1875 -47.988281 56.988281 -62.585938 C 57.785156 -69.183594 56.386719 -74.183594 53.1875 -77.78125 L 52.585938 -78.382812 C 50.789062 -80.179688 48.1875 -80.78125 45.789062 -79.980469 C 43.390625 -78.980469 41.789062 -76.980469 41.589844 -74.582031 L 40.589844 -62.386719 C 39.390625 -54.585938 34.191406 -37.992188 26.792969 -27.394531 C 26.59375 -27.394531 26.59375 -27.394531 26.59375 -27.195312 C 26.394531 -26.992188 23.394531 -22.792969 18.195312 -24.195312 C 16.996094 -24.59375 16.195312 -25.195312 15.597656 -26.394531 C 13.195312 -30.792969 14.597656 -41.390625 19.394531 -55.386719 C 20.59375 -58.585938 19.195312 -62.183594 16.394531 -63.984375 L 14.195312 -65.183594 C 12.796875 -66.183594 10.996094 -66.382812 9.398438 -65.785156 C 7.796875 -65.382812 6.597656 -64.183594 6 -62.585938 C 1.398438 -52.386719 -3.398438 -33.390625 2 -22.394531 C 3.800781 -18.59375 6.796875 -16.195312 10.597656 -15.195312 C 11.597656 -14.796875 12.597656 -14.796875 13.597656 -14.796875 C 16.195312 -14.796875 18.796875 -15.597656 21.394531 -17.597656 C 28.59375 -22.59375 34.390625 -33.390625 38.191406 -43.789062 C 36.792969 -31.59375 34.59375 -17.996094 32.191406 -4.398438 C 4.398438 13.796875 -25.394531 34.792969 -29.394531 62.585938 C -29.792969 65.585938 -29.59375 68.382812 -28.59375 70.984375 C -27.992188 73.78125 -24.992188 78.179688 -19.796875 81.582031 C -16.195312 83.78125 -10.796875 86.179688 -3.597656 86.179688 C -1 86.179688 1.601562 85.78125 4.597656 85.179688 C 10.796875 83.78125 16.796875 79.582031 23.195312 71.582031 C 34.992188 57.386719 43.589844 23.394531 49.789062 -12.398438 C 62.984375 -21.394531 74.582031 -29.992188 81.78125 -39.191406 C 82.179688 -39.789062 82.179688 -40.589844 81.378906 -41.191406 Z M 10.796875 66.382812 C 4.398438 75.382812 -4.398438 77.78125 -8 78.582031 C -13.796875 79.582031 -18.996094 78.382812 -22.59375 74.980469 C -24.195312 73.582031 -25.195312 71.78125 -25.792969 69.984375 L -25.992188 69.785156 C -26.59375 67.785156 -26.792969 65.382812 -26.394531 62.984375 C -22.792969 37.191406 4.800781 17.195312 31.394531 -0.398438 C 26.195312 27.792969 19.195312 55.1875 10.796875 66.382812 Z M 10.796875 66.382812 "/></g></g></g><g fill="rgb(23.139954%, 3.919983%, 3.919983%)" fill-opacity="1"><g transform="translate(329.612626, 1263.705836)"><g><path d="M 74.980469 -40.789062 C 74.582031 -41.390625 73.582031 -41.789062 72.984375 -41.191406 C 72.78125 -41.191406 57.1875 -31.394531 42.589844 -34.792969 C 44.589844 -40.789062 45.390625 -46.988281 45.1875 -52.585938 C 44.589844 -62.785156 40.390625 -69.984375 33.191406 -72.582031 C 28.792969 -74.183594 24.394531 -73.984375 19.996094 -71.78125 C 11.597656 -67.382812 4.398438 -55.988281 0 -40.390625 C -3.800781 -26.792969 0.800781 -16.996094 6.199219 -12.398438 C 9.398438 -9.796875 12.996094 -8.597656 16.796875 -8.597656 C 19.394531 -8.597656 21.792969 -9.199219 24.195312 -10.398438 C 32.191406 -14.195312 38.191406 -22.59375 41.589844 -31.792969 C 43.988281 -31.394531 46.390625 -30.992188 48.988281 -30.992188 C 51.585938 -30.992188 54.585938 -31.394531 57.585938 -31.992188 C 66.984375 -33.992188 74.183594 -38.589844 74.582031 -38.789062 C 75.183594 -39.191406 75.382812 -40.191406 74.980469 -40.789062 Z M 27.195312 -15.796875 C 23.996094 -13.398438 20.59375 -13.195312 17.597656 -15.195312 C 13.195312 -18.195312 9.597656 -26.59375 13.398438 -40.789062 C 14.996094 -46.789062 17.394531 -51.988281 20.394531 -55.988281 C 20.59375 -52.1875 21.996094 -46.988281 26.992188 -41.191406 C 30.191406 -37.390625 33.792969 -34.59375 38.191406 -32.992188 C 38.390625 -32.792969 38.589844 -32.792969 38.789062 -32.792969 C 36.191406 -25.992188 32.191406 -19.796875 27.195312 -15.796875 Z M 39.789062 -35.589844 C 39.589844 -35.589844 39.390625 -35.589844 39.191406 -35.792969 C 36.191406 -36.992188 33.792969 -39.589844 32.390625 -43.191406 C 29.191406 -51.386719 31.191406 -62.386719 32.390625 -65.785156 C 32.992188 -65.984375 33.390625 -65.984375 33.792969 -65.984375 C 36.589844 -66.382812 38.789062 -64.984375 39.992188 -62.183594 C 41.589844 -58.785156 42.191406 -54.988281 42.191406 -52.386719 C 42.589844 -47.1875 41.589844 -41.191406 39.789062 -35.589844 Z M 39.789062 -35.589844 "/></g></g></g><g fill="rgb(23.139954%, 3.919983%, 3.919983%)" fill-opacity="1"><g transform="translate(400.195866, 1263.705836)"><g><path d="M 82.378906 -41.390625 C 81.78125 -41.789062 80.78125 -41.390625 80.382812 -40.789062 C 72.382812 -26.394531 66.183594 -17.394531 61.1875 -11.796875 C 61.1875 -11.597656 60.984375 -11.597656 60.984375 -11.597656 C 59.984375 -10.796875 56.785156 -8.398438 54.785156 -9.199219 C 53.789062 -9.597656 52.988281 -10.398438 52.386719 -11.597656 C 48.988281 -19.59375 54.386719 -43.789062 66.585938 -74.980469 C 67.785156 -77.582031 66.785156 -80.382812 64.183594 -81.78125 L 62.984375 -82.582031 C 61.386719 -83.582031 59.585938 -83.78125 57.785156 -83.179688 C 56.1875 -82.78125 54.785156 -81.582031 53.988281 -79.980469 C 51.1875 -74.183594 48.1875 -66.382812 45.589844 -58.1875 C 38.992188 -43.988281 30.992188 -29.992188 23.59375 -21.394531 L 23.394531 -21.195312 C 23.394531 -20.996094 23.195312 -20.996094 22.996094 -20.796875 C 21.996094 -19.796875 18.796875 -16.796875 14.996094 -18.796875 C 11.597656 -20.394531 10.796875 -34.390625 23.394531 -64.585938 C 24.792969 -67.585938 23.792969 -71.382812 21.195312 -73.382812 L 19.796875 -74.382812 C 18.59375 -75.382812 16.996094 -75.78125 15.597656 -75.382812 C 13.996094 -74.980469 12.597656 -74.183594 11.996094 -72.78125 C 1.199219 -53.789062 -3.800781 -29.394531 0.199219 -16.996094 C 1.398438 -13.398438 3.199219 -10.996094 5.796875 -9.996094 C 7 -9.398438 8.398438 -8.996094 9.597656 -8.996094 C 10.996094 -8.996094 12.597656 -9.398438 13.996094 -9.996094 C 17.597656 -11.398438 21.195312 -14.398438 24.792969 -18.394531 C 25.195312 -18.796875 25.59375 -18.996094 25.792969 -19.394531 C 31.394531 -25.792969 36.792969 -34.59375 41.789062 -43.789062 C 39.191406 -32.59375 37.792969 -21.792969 38.390625 -14.195312 C 38.789062 -8.199219 41.191406 -1.398438 46.789062 -0.199219 C 47.1875 -0.199219 47.789062 0 48.386719 0 C 52.585938 0 57.386719 -3.199219 62.984375 -9.398438 L 63.386719 -9.796875 C 69.183594 -16.394531 75.582031 -26.195312 82.980469 -39.390625 C 83.378906 -39.992188 83.179688 -40.992188 82.378906 -41.390625 Z M 82.378906 -41.390625 "/></g></g></g><g fill="rgb(23.139954%, 3.919983%, 3.919983%)" fill-opacity="1"><g transform="translate(480.176878, 1263.705836)"><g><path d="M 63.785156 -41.390625 C 62.984375 -41.789062 62.183594 -41.390625 61.785156 -40.589844 C 53.789062 -23.996094 44.191406 -11.597656 36.390625 -5 C 34.992188 -4.199219 33.390625 -3.398438 32.191406 -3.800781 C 31.992188 -3.800781 31.59375 -4 31.191406 -4.800781 C 28.792969 -9.996094 32.390625 -26.992188 37.191406 -39.390625 C 37.792969 -40.992188 37.390625 -42.789062 36.191406 -43.789062 C 34.992188 -44.988281 33.191406 -45.390625 31.792969 -44.789062 C 26.59375 -42.589844 19.195312 -39.992188 13.796875 -40.191406 C 11.398438 -40.191406 9.996094 -40.789062 9.398438 -41.789062 C 7.796875 -44.390625 10.597656 -51.1875 12.796875 -55.988281 C 14.398438 -59.386719 13.597656 -63.386719 10.597656 -65.785156 L 8.796875 -67.382812 C 7.597656 -68.582031 5.796875 -68.984375 4.199219 -68.582031 C 2.597656 -68.183594 1.199219 -67.183594 0.601562 -65.585938 C -5.199219 -53.1875 -6.796875 -45.988281 -0.800781 -39.789062 C 4.199219 -34.59375 15.996094 -35.792969 21.195312 -36.589844 C 15.996094 -23.59375 13.398438 -7.796875 18.195312 -0.398438 C 19.996094 2 22.394531 3.398438 25.394531 3.398438 L 25.59375 3.398438 C 29.394531 3.398438 33.992188 1 38.789062 -3.199219 C 39.390625 -3.597656 39.589844 -4 39.789062 -4.199219 C 48.1875 -11.597656 57.1875 -24.195312 64.386719 -39.390625 C 64.785156 -40.191406 64.585938 -40.992188 63.785156 -41.390625 Z M 63.785156 -41.390625 "/></g></g></g><g fill="rgb(23.139954%, 3.919983%, 3.919983%)" fill-opacity="1"><g transform="translate(541.762221, 1263.705836)"><g/></g></g><g fill="rgb(23.139954%, 3.919983%, 3.919983%)" fill-opacity="1"><g transform="translate(612.745325, 1263.705836)"><g><path d="M 85.378906 -41.390625 C 84.78125 -41.789062 83.78125 -41.390625 83.378906 -40.789062 C 79.78125 -34.390625 70.984375 -20.195312 63.785156 -13.398438 C 63.785156 -13.195312 63.585938 -13.195312 63.585938 -13.195312 L 63.585938 -12.996094 C 61.585938 -11.199219 59.785156 -9.996094 58.1875 -9.597656 C 57.386719 -9.398438 56.785156 -9.597656 56.585938 -9.796875 C 54.585938 -10.796875 57.585938 -20.195312 59.785156 -27.59375 C 61.585938 -33.191406 63.785156 -39.789062 64.984375 -45.988281 C 67.183594 -57.585938 66.984375 -65.585938 63.984375 -69.984375 C 62.585938 -71.78125 60.785156 -72.984375 58.585938 -73.382812 C 56.386719 -73.78125 53.585938 -72.78125 50.589844 -70.582031 C 47.789062 -68.582031 44.789062 -65.585938 41.789062 -61.785156 C 29.59375 -46.789062 15.796875 -20.195312 9.796875 0.398438 C 9.796875 -9.398438 10.597656 -19.996094 11.996094 -30.792969 C 12.398438 -30.792969 12.996094 -30.992188 13.195312 -31.394531 C 32.992188 -61.1875 46.789062 -87.578125 53.988281 -109.574219 C 59.785156 -126.570312 60.1875 -137.566406 59.585938 -143.964844 L 59.585938 -144.367188 C 59.386719 -145.964844 59.1875 -147.164062 58.785156 -147.964844 C 57.984375 -151.765625 56.386719 -154.5625 54.386719 -155.5625 C 49.1875 -158.363281 45.589844 -156.5625 41.589844 -153.164062 C 34.992188 -147.566406 18.59375 -127.769531 4.199219 -63.585938 C -4.800781 -22.996094 -3.800781 9.796875 -2.800781 21.792969 C -2.597656 25.992188 -0.398438 29.792969 2.800781 31.792969 L 7.199219 34.792969 C 7.796875 34.992188 8.398438 35.191406 8.796875 35.191406 C 9.398438 35.191406 9.996094 34.992188 10.597656 34.59375 C 11.796875 33.792969 12.398438 32.390625 11.996094 30.992188 C 10.996094 26.195312 10.398438 20.195312 9.996094 13.195312 C 12.597656 -7 29.191406 -41.789062 43.789062 -59.585938 C 43.789062 -59.785156 43.988281 -59.785156 43.988281 -59.984375 C 45.1875 -61.1875 49.589844 -63.585938 51.386719 -62.386719 C 53.789062 -60.585938 52.585938 -52.386719 47.1875 -37.390625 C 43.390625 -26.59375 41.589844 -20.195312 42.390625 -14.597656 C 43.191406 -9.398438 46.789062 -6 49.789062 -4.597656 C 50.789062 -4 51.988281 -3.800781 52.988281 -3.800781 C 59.386719 -3.800781 65.382812 -10.796875 65.785156 -11.199219 C 74.582031 -19.59375 84.578125 -36.792969 85.980469 -39.191406 C 86.378906 -39.992188 86.179688 -40.992188 85.378906 -41.390625 Z M 16.996094 -58.785156 C 20.195312 -71.984375 27.195312 -95.378906 34.191406 -114.371094 C 46.1875 -147.164062 51.585938 -149.363281 52.789062 -149.363281 C 55.585938 -148.964844 56.386719 -145.164062 56.585938 -143.964844 C 57.984375 -132.570312 55.386719 -100.976562 12.597656 -35.792969 C 13.796875 -43.589844 15.195312 -51.386719 16.996094 -58.785156 Z M 16.996094 -58.785156 "/></g></g></g><g fill="rgb(23.139954%, 3.919983%, 3.919983%)" fill-opacity="1"><g transform="translate(695.725601, 1263.705836)"><g><path d="M 61.984375 -40.992188 C 61.386719 -41.390625 60.585938 -41.191406 59.984375 -40.589844 C 43.191406 -18.195312 32.992188 -9.199219 24.394531 -6 L 24.195312 -6 C 20.59375 -5 17.394531 -5.796875 15.195312 -8.398438 C 10.796875 -13.398438 10.597656 -23.792969 14.597656 -35.390625 C 18.59375 -36.191406 34.59375 -39.789062 41.789062 -53.1875 C 43.988281 -57.585938 44.390625 -61.1875 43.988281 -63.984375 C 43.988281 -64.585938 43.789062 -65.382812 43.589844 -65.984375 C 43.191406 -67.183594 42.789062 -67.984375 42.390625 -68.785156 C 40.191406 -72.382812 36.191406 -74.582031 32.191406 -74.582031 C 22.996094 -74.582031 9.796875 -65.382812 0 -40.191406 C -5.796875 -24.992188 -2.800781 -15.597656 0.800781 -10.398438 C 5.199219 -4 11.796875 -1.601562 15.996094 -1.601562 C 18.996094 -1.601562 21.996094 -2.199219 24.992188 -3.199219 C 24.992188 -3.199219 25.195312 -3.199219 25.195312 -3.398438 C 35.589844 -7 46.390625 -17.796875 62.386719 -38.789062 C 62.785156 -39.589844 62.785156 -40.390625 61.984375 -40.992188 Z M 16.195312 -39.390625 C 24.59375 -59.585938 31.59375 -65.585938 35.992188 -66.984375 C 37.390625 -67.585938 38.589844 -67.382812 39.589844 -66.785156 L 40.789062 -65.183594 C 41.789062 -62.183594 41.191406 -58.386719 39.191406 -54.585938 C 33.390625 -43.988281 21.195312 -39.992188 15.796875 -38.789062 Z M 16.195312 -39.390625 "/></g></g></g><g fill="rgb(23.139954%, 3.919983%, 3.919983%)" fill-opacity="1"><g transform="translate(755.311397, 1263.705836)"><g><path d="M 72.582031 -41.390625 C 71.78125 -41.589844 70.984375 -41.191406 70.785156 -40.589844 C 67.984375 -26.394531 62.386719 -7 56.386719 3.800781 C 55.386719 5 52.789062 8 49.988281 6.398438 C 48.589844 5.597656 46.589844 -2.199219 49.1875 -21.792969 C 51.386719 -38.992188 56.386719 -57.585938 62.183594 -71.382812 C 63.386719 -74.582031 62.585938 -78.582031 59.386719 -81.378906 L 56.386719 -84.179688 C 55.386719 -85.179688 53.789062 -85.78125 52.386719 -85.78125 C 50.988281 -85.578125 49.988281 -84.980469 48.988281 -83.78125 C 46.1875 -78.382812 43.191406 -70.785156 40.789062 -61.984375 L 40.789062 -62.386719 C 39.589844 -67.183594 36.792969 -70.785156 33.191406 -72.582031 C 30.394531 -73.78125 26.195312 -73.78125 21.996094 -72.183594 C 16.394531 -69.984375 6 -63.386719 0.601562 -43.589844 C -3.398438 -26.992188 -0.601562 -17.996094 2 -13.195312 C 5.199219 -8.398438 9.398438 -7.199219 10.996094 -6.796875 C 11.796875 -6.597656 12.398438 -6.597656 13.195312 -6.597656 C 17.597656 -6.597656 22.792969 -9.199219 27.59375 -15.796875 C 27.792969 -16.195312 27.992188 -16.394531 28.394531 -16.597656 C 28.394531 -16.796875 28.59375 -16.796875 28.59375 -16.996094 C 30.792969 -20.195312 32.992188 -23.996094 34.992188 -28.992188 C 34.191406 -17.394531 33.992188 -0.199219 39.390625 8.796875 C 41.390625 12.195312 43.988281 14.195312 47.390625 14.597656 L 48.1875 14.597656 C 54.585938 14.597656 60.386719 5.796875 66.585938 -12.195312 C 70.984375 -25.59375 73.78125 -39.390625 73.984375 -39.589844 C 73.78125 -40.390625 73.382812 -41.191406 72.582031 -41.390625 Z M 38.992188 -53.988281 C 37.992188 -49.988281 37.390625 -45.988281 36.792969 -41.789062 C 33.191406 -31.394531 29.59375 -23.792969 25.992188 -18.59375 C 22.792969 -14.398438 18.996094 -14.195312 17.394531 -15.195312 C 15.597656 -16.195312 11.398438 -18.59375 16.195312 -41.589844 C 20.59375 -63.183594 29.992188 -66.785156 32.992188 -66.382812 C 35.191406 -65.984375 37.191406 -63.785156 37.992188 -61.585938 C 38.589844 -59.585938 38.992188 -56.988281 38.992188 -53.988281 Z M 38.992188 -53.988281 "/></g></g></g><g fill="rgb(23.139954%, 3.919983%, 3.919983%)" fill-opacity="1"><g transform="translate(826.294524, 1263.705836)"><g><path d="M 63.785156 -41.390625 C 62.984375 -41.789062 62.183594 -41.390625 61.785156 -40.589844 C 53.789062 -23.996094 44.191406 -11.597656 36.390625 -5 C 34.992188 -4.199219 33.390625 -3.398438 32.191406 -3.800781 C 31.992188 -3.800781 31.59375 -4 31.191406 -4.800781 C 28.792969 -9.996094 32.390625 -26.992188 37.191406 -39.390625 C 37.792969 -40.992188 37.390625 -42.789062 36.191406 -43.789062 C 34.992188 -44.988281 33.191406 -45.390625 31.792969 -44.789062 C 26.59375 -42.589844 19.195312 -39.992188 13.796875 -40.191406 C 11.398438 -40.191406 9.996094 -40.789062 9.398438 -41.789062 C 7.796875 -44.390625 10.597656 -51.1875 12.796875 -55.988281 C 14.398438 -59.386719 13.597656 -63.386719 10.597656 -65.785156 L 8.796875 -67.382812 C 7.597656 -68.582031 5.796875 -68.984375 4.199219 -68.582031 C 2.597656 -68.183594 1.199219 -67.183594 0.601562 -65.585938 C -5.199219 -53.1875 -6.796875 -45.988281 -0.800781 -39.789062 C 4.199219 -34.59375 15.996094 -35.792969 21.195312 -36.589844 C 15.996094 -23.59375 13.398438 -7.796875 18.195312 -0.398438 C 19.996094 2 22.394531 3.398438 25.394531 3.398438 L 25.59375 3.398438 C 29.394531 3.398438 33.992188 1 38.789062 -3.199219 C 39.390625 -3.597656 39.589844 -4 39.789062 -4.199219 C 48.1875 -11.597656 57.1875 -24.195312 64.386719 -39.390625 C 64.785156 -40.191406 64.585938 -40.992188 63.785156 -41.390625 Z M 63.785156 -41.390625 "/></g></g></g><g fill="rgb(23.139954%, 3.919983%, 3.919983%)" fill-opacity="1"><g transform="translate(887.879867, 1263.705836)"><g><path d="M 53.386719 -40.789062 C 52.585938 -41.191406 51.789062 -40.789062 51.386719 -39.992188 C 51.1875 -39.789062 36.589844 -9.996094 23.792969 2.398438 C 23.792969 2.398438 19.796875 5.597656 16.394531 3.597656 C 12.597656 1.398438 7.597656 -8.597656 13.796875 -49.1875 C 13.996094 -49.1875 13.996094 -49.1875 13.996094 -49.386719 C 21.59375 -57.785156 31.191406 -73.382812 38.789062 -89.777344 C 42.589844 -89.578125 46.1875 -89.378906 49.789062 -89.378906 C 60.386719 -89.378906 70.785156 -90.578125 79.179688 -93.976562 C 79.980469 -94.179688 80.179688 -95.175781 79.980469 -95.777344 C 79.78125 -96.578125 78.78125 -96.976562 77.980469 -96.777344 C 67.382812 -92.578125 53.585938 -91.777344 40.191406 -92.777344 C 48.386719 -110.773438 54.1875 -129.371094 52.1875 -139.566406 L 52.1875 -139.765625 C 51.386719 -143.566406 49.589844 -145.964844 46.789062 -147.367188 C 43.390625 -148.964844 39.589844 -148.765625 35.792969 -146.765625 C 25.992188 -141.167969 16.597656 -122.769531 9.597656 -96.777344 C 4.597656 -97.777344 0.398438 -98.777344 -3 -99.578125 C -13.195312 -102.175781 -21.996094 -101.777344 -26.992188 -98.578125 C -29.191406 -97.175781 -30.792969 -95.175781 -31.191406 -92.777344 C -31.394531 -91.976562 -30.792969 -91.179688 -29.992188 -90.980469 C -29.191406 -90.777344 -28.394531 -91.378906 -28.191406 -92.179688 C -27.992188 -93.777344 -26.992188 -95.175781 -25.394531 -96.175781 C -20.996094 -98.976562 -13.195312 -99.175781 -3.597656 -96.777344 L 8.796875 -93.976562 C 5.597656 -80.980469 2.800781 -66.183594 1 -50.386719 C -2.398438 -21.195312 -2.597656 -7.796875 0.601562 0.800781 C 2.398438 6 6 8.398438 8.796875 9.398438 C 10.398438 10.199219 12.195312 10.398438 13.996094 10.398438 C 16.195312 10.398438 18.195312 9.996094 19.796875 9.199219 C 21.59375 8.199219 23.59375 6.597656 25.59375 4.597656 L 25.792969 4.597656 C 38.992188 -8 53.386719 -37.390625 53.988281 -38.789062 C 54.386719 -39.589844 54.1875 -40.390625 53.386719 -40.789062 Z M 47.1875 -140.367188 C 48.589844 -140.367188 49.1875 -139.566406 49.386719 -138.96875 C 51.1875 -129.167969 45.1875 -110.773438 36.992188 -92.976562 C 32.191406 -93.378906 27.59375 -93.777344 23.195312 -94.578125 C 32.390625 -129.769531 42.191406 -140.167969 47.1875 -140.367188 Z M 15.796875 -61.1875 C 17.996094 -72.78125 20.195312 -82.980469 22.394531 -91.578125 C 26.59375 -90.980469 31.191406 -90.578125 35.792969 -90.179688 C 29.191406 -76.382812 21.394531 -63.183594 14.796875 -54.785156 C 14.996094 -56.785156 15.394531 -58.984375 15.796875 -61.1875 Z M 15.796875 -61.1875 "/></g></g></g></svg>